<svg width="215" height="109" viewBox="0 0 215 109" fill="none" xmlns="http://www.w3.org/2000/svg">
<path opacity="0.4" d="M177.721 7.07829C179.576 7.07829 181.08 5.57466 181.08 3.71984C181.08 1.86502 179.576 0.361389 177.721 0.361389C175.866 0.361389 174.363 1.86502 174.363 3.71984C174.363 5.57466 175.866 7.07829 177.721 7.07829Z" fill="#5DB0AB"/>
<path opacity="0.4" d="M171.505 7.6798C172.806 7.6798 173.861 6.62501 173.861 5.32387C173.861 4.02272 172.806 2.96794 171.505 2.96794C170.204 2.96794 169.149 4.02272 169.149 5.32387C169.149 6.62501 170.204 7.6798 171.505 7.6798Z" fill="#5DB0AB"/>
<path opacity="0.4" d="M18.7305 19.6533C22.6151 19.6533 25.7642 16.5042 25.7642 12.6196C25.7642 8.73497 22.6151 5.58586 18.7305 5.58586C14.8459 5.58586 11.6968 8.73497 11.6968 12.6196C11.6968 16.5042 14.8459 19.6533 18.7305 19.6533Z" fill="#5DB0AB"/>
<path opacity="0.4" d="M5.71292 20.9131C8.43795 20.9131 10.647 18.704 10.647 15.979C10.647 13.254 8.43795 11.0449 5.71292 11.0449C2.98789 11.0449 0.778809 13.254 0.778809 15.979C0.778809 18.704 2.98789 20.9131 5.71292 20.9131Z" fill="#5DB0AB"/>
<path d="M195.585 96.647L177.703 70.0859C177.703 70.0859 204.784 79.5398 201.71 96.647H195.585Z" fill="#3F3D56"/>
<path d="M196.287 96.647L214.169 70.0859C214.169 70.0859 187.088 79.5398 190.162 96.647H196.287Z" fill="#5DB0AB"/>
<path d="M120.342 10.821C115.686 2.95381 106.475 2.58717 106.475 2.58717C106.475 2.58717 97.4986 1.43932 91.7405 13.4211C86.3735 24.5892 78.9663 35.3721 90.548 37.9865L92.64 31.4753L93.9355 38.4712C95.5845 38.5898 97.2388 38.6181 98.8909 38.5559C111.294 38.1555 123.106 38.6731 122.726 34.2223C122.22 28.3057 124.822 18.3908 120.342 10.821Z" fill="#2F2E41"/>
<path d="M89.8869 79.7176C89.7502 80.5829 89.5517 81.4373 89.293 82.2743C89.0016 83.0936 88.5518 83.8513 88.2854 84.679C87.4362 87.3174 88.6134 90.2592 90.4935 92.2957C92.124 94.0547 94.2286 95.3044 96.5534 95.894C98.2495 96.3206 100.013 96.382 101.761 96.4413C106.601 96.6054 111.566 96.7523 116.152 95.1968C117.601 94.6932 119.001 94.0574 120.333 93.2973C120.754 93.0969 121.125 92.805 121.418 92.4431C121.768 91.9451 121.813 91.2992 121.81 90.6907C121.799 88.6388 121.383 86.5974 121.482 84.5479C121.537 83.4127 121.749 82.2783 121.645 81.1466C121.5 79.8613 120.961 78.6521 120.103 77.6846C119.245 76.717 118.108 76.0384 116.849 75.7416C115.548 75.4622 114.199 75.6145 112.874 75.7418C109.436 76.0722 105.983 76.2266 102.529 76.2044C98.9998 76.1819 95.4925 75.6432 91.9809 75.5869C90.9424 75.5703 90.9634 75.8904 90.6328 76.8955C90.3282 77.8205 90.0792 78.7629 89.8869 79.7176V79.7176Z" fill="#2F2E41"/>
<path d="M99.9023 29.0521C99.7327 29.9401 99.5494 30.8606 99.0157 31.5904C98.4018 32.43 97.4007 32.9097 96.7402 33.7133C95.746 34.9227 95.6889 36.6247 95.6848 38.1903C95.681 39.6326 95.7103 41.171 96.5146 42.3682C97.0366 43.1452 97.8309 43.69 98.6072 44.2131C101.624 46.2458 104.883 48.3151 108.52 48.3821C110.027 48.4099 111.642 48.0208 112.634 46.8857C113.062 46.3526 113.398 45.7521 113.63 45.1087C114.56 42.8164 115.123 40.3922 115.3 37.9249C115.383 36.7641 115.375 35.5694 114.982 34.474C114.54 33.2422 113.647 32.2287 113.057 31.0608C112.359 29.6721 112.103 28.1027 112.325 26.5644C112.355 26.4561 112.346 26.3409 112.3 26.2385C112.251 26.1837 112.19 26.1409 112.123 26.1134C112.055 26.0859 111.981 26.0745 111.908 26.08L104.697 25.5609C104.026 25.5275 103.357 25.451 102.695 25.3319C102.307 25.2528 101.28 24.7007 100.909 24.8476C100.223 25.1193 100.043 28.3157 99.9023 29.0521Z" fill="#FFB8B8"/>
<path opacity="0.1" d="M99.9023 29.0521C99.7327 29.9401 99.5494 30.8606 99.0157 31.5904C98.4018 32.43 97.4007 32.9097 96.7402 33.7133C95.746 34.9227 95.6889 36.6247 95.6848 38.1903C95.681 39.6326 95.7103 41.171 96.5146 42.3682C97.0366 43.1452 97.8309 43.69 98.6072 44.2131C101.624 46.2458 104.883 48.3151 108.52 48.3821C110.027 48.4099 111.642 48.0208 112.634 46.8857C113.062 46.3526 113.398 45.7521 113.63 45.1087C114.56 42.8164 115.123 40.3922 115.3 37.9249C115.383 36.7641 115.375 35.5694 114.982 34.474C114.54 33.2422 113.647 32.2287 113.057 31.0608C112.359 29.6721 112.103 28.1027 112.325 26.5644C112.355 26.4561 112.346 26.3409 112.3 26.2385C112.251 26.1837 112.19 26.1409 112.123 26.1134C112.055 26.0859 111.981 26.0745 111.908 26.08L104.697 25.5609C104.026 25.5275 103.357 25.451 102.695 25.3319C102.307 25.2528 101.28 24.7007 100.909 24.8476C100.223 25.1193 100.043 28.3157 99.9023 29.0521Z" fill="black"/>
<path d="M106.798 30.019C112.641 30.019 117.378 25.2824 117.378 19.4396C117.378 13.5967 112.641 8.86014 106.798 8.86014C100.955 8.86014 96.2188 13.5967 96.2188 19.4396C96.2188 25.2824 100.955 30.019 106.798 30.019Z" fill="#FFB8B8"/>
<path d="M101.386 43.135C101.938 43.7113 102.522 44.282 103.244 44.6198C103.98 44.9239 104.77 45.0743 105.566 45.0618C107.473 45.1155 109.54 44.7661 110.867 43.395C112.577 41.6277 112.521 38.7771 113.861 36.7153C113.969 36.5284 114.117 36.3672 114.293 36.2429C114.518 36.1205 114.772 36.0621 115.028 36.074C116.721 36.0582 118.195 37.1561 119.526 38.2025C120.122 38.6713 120.734 39.1569 121.11 39.8155C121.373 40.3289 121.553 40.8808 121.644 41.4507C122.304 44.6747 122.518 47.9712 122.73 51.2554C122.847 53.0694 122.965 54.8851 122.956 56.7029C122.927 62.6916 121.535 68.5802 120.151 74.4068C119.973 75.1576 119.729 75.9967 119.046 76.3563C118.742 76.4932 118.415 76.573 118.082 76.5917C114.117 77.0573 110.144 77.5235 106.153 77.585C104.595 77.609 103.038 77.5713 101.482 77.4719C101.214 77.4683 100.948 77.422 100.695 77.3347C100.351 77.1696 100.056 76.9188 99.837 76.6063C97.678 73.8856 97.5505 70.1242 97.5643 66.651C97.5981 58.1593 97.9015 49.6743 98.4745 41.1962C98.5218 40.4964 98.5322 39.6466 98.0279 39.0961C98.9358 40.5495 100.199 41.8937 101.386 43.135Z" fill="#D0CDE1"/>
<path d="M99.1449 30.9194C98.7876 31.5662 96.1533 33.1723 95.6447 33.7084C92.8031 36.7036 87.6169 36.5912 85.0181 39.7992C84.1038 40.9279 83.6288 42.3461 83.2794 43.756C82.7852 45.7501 82.5214 47.9249 83.3492 49.8051C84.1457 51.6144 85.8224 52.8652 86.9608 54.4813C88.2107 56.2558 88.7727 58.4103 89.3113 60.5129C89.7089 62.0654 90.1099 63.6564 89.955 65.2515C89.7789 67.0651 88.9013 68.7258 88.3831 70.4727C87.865 72.2196 87.7755 74.3002 88.9736 75.6731C89.8538 76.6817 91.2345 77.0815 92.5541 77.3064C94.2443 77.5604 95.9487 77.7088 97.6574 77.7507C99.1659 77.8174 100.829 77.8303 101.988 76.8632C102.903 76.1002 103.301 74.8619 103.353 73.6715C103.404 72.4812 103.156 71.3014 103.001 70.1201C102.841 68.8954 102.779 67.6602 102.727 66.4261C102.495 60.8891 102.463 55.3485 102.632 49.8044C102.667 48.6507 102.71 47.4829 102.464 46.3552C102.14 44.8721 101.339 43.5467 100.67 42.1841C99.3424 39.4793 98.7146 36.8519 98.9198 33.8456C99.1224 30.8784 100.416 28.6178 99.1449 30.9194Z" fill="#5DB0AB"/>
<path d="M114.001 31.1445C114.545 31.7039 116.395 31.8883 117.087 32.2485C117.738 32.5493 118.418 32.7846 119.116 32.9509C121.641 33.6794 124.043 34.7819 126.242 36.2217C126.699 36.489 127.103 36.8379 127.434 37.251C127.821 37.7899 127.962 38.4622 128.093 39.1127C128.432 40.7919 128.773 42.4914 128.697 44.2028C128.616 46.0194 128.069 47.7789 127.526 49.5144L125.497 55.9992C123.983 60.8397 122.46 65.7278 122.034 70.7816C121.798 73.5825 121.903 76.4017 122.346 79.1774C122.39 79.4565 122.428 79.7763 122.243 79.9906C122.11 80.1227 121.934 80.2036 121.747 80.2191C120.768 80.3722 119.82 79.873 118.933 79.4314C116.222 78.0822 113.329 77.1355 110.345 76.6211C111.511 74.9359 112.411 73.0811 113.012 71.1221C113.354 69.8782 113.623 68.6154 113.818 67.3402L114.762 61.8828C115.146 59.888 115.416 57.8731 115.571 55.8477C115.643 55.0876 115.598 54.3211 115.44 53.5743C115.222 52.8636 114.934 52.1767 114.578 51.5241C113.023 48.2894 112.293 44.598 112.905 41.0614C113.173 39.5137 113.693 37.9639 113.476 36.4083C113.268 34.9126 113.485 33.7502 113.101 32.27C111.525 26.1924 112.977 30.0921 114.001 31.1445Z" fill="#5DB0AB"/>
<path d="M84.9914 44.9136C84.2824 46.3847 83.0972 47.638 82.6938 49.2205C82.5368 49.9601 82.4696 50.7159 82.4935 51.4716C82.4839 52.6105 82.4777 53.7724 82.8274 54.8564C83.0526 55.5542 83.4189 56.1978 83.6827 56.8819C84.0506 57.8377 84.2145 58.8599 84.1638 59.8827C84.0926 61.2998 83.6112 62.6754 83.5736 64.0938C83.5144 66.3243 84.5461 68.4212 85.5528 70.4125C85.8062 69.7851 86.1936 69.2205 86.6879 68.7584C87.1823 68.2963 87.7716 67.9478 88.4147 67.7373C89.0578 67.5267 89.7392 67.4592 90.4111 67.5395C91.083 67.6198 91.7293 67.8459 92.3047 68.202C92.5702 67.9568 92.5986 67.5541 92.609 67.1927C92.6834 64.605 92.7552 62.0171 92.8243 59.4292C92.9333 55.4269 93.0371 51.371 92.1164 47.4745C91.7007 45.7152 91.0539 43.9627 89.8681 42.5981C89.2437 41.8796 87.1242 39.987 86.0993 40.7919C85.6384 41.1539 85.7461 42.1393 85.6731 42.6382C85.5628 43.4269 85.333 44.1942 84.9914 44.9136V44.9136Z" fill="#5DB0AB"/>
<path d="M128.904 40.6741C129.239 41.7182 129.259 42.8339 129.266 43.9306C129.28 46.1676 129.25 48.4044 129.177 50.6408C129.14 51.7857 129.088 52.9464 128.741 54.0381C128.512 54.758 128.159 55.4331 127.922 56.1506C127.214 58.301 127.601 60.6332 127.662 62.8965C127.705 63.629 127.642 64.3639 127.476 65.0786C127.102 66.4817 126.097 67.6154 125.396 68.8868C124.73 70.0942 124.328 71.4477 123.532 72.574C122.736 73.7004 121.359 74.5929 120.024 74.2471C119.013 73.9851 118.294 73.0898 117.797 72.1708C116.712 70.1501 116.341 67.8225 116.744 65.5647C117.243 62.8177 118.856 60.3808 119.438 57.6502C120.237 53.9005 119.023 50.031 119.059 46.1973C119.043 45.5963 119.124 44.9967 119.3 44.4219C119.606 43.5462 120.261 42.8469 120.867 42.1446C121.624 41.2669 122.327 40.3442 122.972 39.3817C123.406 38.7351 123.995 37.0721 124.763 36.9338C126.479 36.625 128.478 39.3482 128.904 40.6741Z" fill="#5DB0AB"/>
<path d="M76.0865 78.05C75.1375 77.8114 74.1597 77.7075 73.1818 77.7412C72.1542 77.798 71.1506 78.0729 70.2376 78.5476C69.3245 79.0223 68.523 79.6859 67.8863 80.4944C67.2496 81.3029 66.7923 82.2376 66.5448 83.2365C66.2973 84.2354 66.2653 85.2755 66.4509 86.2877C66.6879 87.3841 67.0753 88.4426 67.602 89.433C68.3723 90.9963 69.2963 92.5561 70.7224 93.5579C71.5566 94.144 72.5222 94.5093 73.4762 94.8688L80.9873 97.6983C82.0923 98.1146 83.1974 98.5309 84.3134 98.9169C89.9196 100.855 95.7644 102.017 101.686 102.371C103.489 102.478 105.32 102.508 107.079 102.097C107.497 102 107.942 101.855 108.184 101.5C108.327 101.251 108.412 100.972 108.431 100.685L108.893 97.4495C108.958 96.9939 109.021 96.5144 108.854 96.0855C108.642 95.5417 108.111 95.1996 107.605 94.909C102.667 92.0728 96.9015 90.5082 92.7451 86.6156C91.7666 85.6992 90.9478 84.2467 89.759 83.6242C88.4108 82.9183 86.8231 82.5154 85.4297 81.865C82.3833 80.443 79.3882 78.8089 76.0865 78.05Z" fill="#2F2E41"/>
<path opacity="0.1" d="M83.5855 82.4121C86.2404 83.244 97.4492 89.0074 99.3705 91.0196C99.1129 91.1124 90.3755 86.2158 90.1133 86.1371C87.7301 85.4219 85.3336 84.7019 83.0704 83.6552C82.6151 83.4446 80.1126 82.4549 80.2259 81.8804C80.3538 81.2322 83.1142 82.2644 83.5855 82.4121Z" fill="black"/>
<path d="M116.707 104.049C116.857 104.06 117.007 104.016 117.127 103.925C117.18 103.857 117.219 103.779 117.242 103.696C117.264 103.613 117.27 103.526 117.259 103.44C117.255 101.971 117.251 100.502 117.247 99.0323C115.979 98.4284 114.561 98.2348 113.169 98.0488L106.676 97.1808C106.825 97.2007 105.66 99.9777 105.839 100.348C106.154 101.002 108.559 101.581 109.238 101.889C111.597 102.962 114.049 104.141 116.707 104.049Z" fill="#FFB8B8"/>
<path d="M96.3325 99.0171C95.1064 99.2124 93.7379 99.385 92.9439 100.339C91.937 101.55 92.3657 103.354 92.846 104.853C92.9174 105.157 93.0606 105.438 93.2637 105.675C93.5915 105.998 94.0938 106.045 94.5534 106.075C95.6715 106.145 96.8615 106.201 97.8384 105.652C98.2809 105.36 98.707 105.043 99.1145 104.704C99.835 104.224 100.627 103.862 101.461 103.631C102.994 103.149 104.572 102.824 106.17 102.661C106.8 102.632 107.424 102.522 108.026 102.334C108.615 102.112 109.161 101.671 109.332 101.065C109.559 100.264 109.093 99.4472 108.647 98.7447C108.09 97.8695 107.501 96.948 106.672 96.3038C105.462 95.3639 104.863 96.0854 103.644 96.6868C101.337 97.8254 98.8727 98.6109 96.3325 99.0171V99.0171Z" fill="#FFB8B8"/>
<path d="M93.1285 100.121L85.3435 97.8205C84.3967 97.5406 83.4337 97.2583 82.4464 97.2591C81.4591 97.2598 80.4261 97.5835 79.7858 98.335C79.1821 99.0435 79.0094 100.012 78.8589 100.93L78.5369 102.895C78.3733 103.894 78.2094 104.912 78.3567 105.913C78.5039 106.914 79.015 107.914 79.9033 108.399C80.9806 108.986 82.3009 108.699 83.5033 108.454C85.9319 107.957 88.4021 107.692 90.8808 107.662C91.8126 107.651 92.79 107.663 93.6134 107.227C94.5921 106.708 95.1777 105.611 95.2784 104.508C95.4316 102.829 94.8721 100.637 93.1285 100.121Z" fill="#2F2E41"/>
<path d="M119.766 98.1163C120.776 97.9394 121.666 97.3658 122.633 97.0273C123.995 96.5507 125.47 96.5507 126.912 96.556C127.441 96.5579 128.005 96.5698 128.446 96.8632C129.081 97.2861 129.244 98.1325 129.352 98.8879L130.003 103.446C130.126 104.303 130.248 105.184 130.057 106.028C129.866 106.873 129.29 107.687 128.452 107.905C127.434 108.17 126.436 107.52 125.474 107.092C123.072 106.025 120.279 106.298 117.774 105.5C117.31 105.351 116.812 105.125 116.622 104.675C116.536 104.422 116.506 104.154 116.532 103.888C116.575 102.423 116.266 100.422 116.707 99.0218C117.104 97.7626 118.64 98.1163 119.766 98.1163Z" fill="#2F2E41"/>
<path d="M136.241 76.2154C137.797 75.8253 139.41 75.7151 141.004 75.89C142.277 76.0302 143.589 76.3845 144.518 77.2657C145.65 78.3383 146.013 79.997 146.043 81.5557C146.093 84.6602 145.063 87.6857 143.13 90.1154C142.658 90.7299 142.097 91.2703 141.465 91.7187C140.783 92.1452 140.056 92.4954 139.298 92.7629L122.477 99.3976C118.052 101.143 113.611 102.893 108.995 104.044C108.869 104.105 108.732 104.14 108.592 104.147C108.452 104.154 108.312 104.133 108.18 104.086C108.049 104.038 107.928 103.964 107.825 103.869C107.722 103.774 107.639 103.659 107.581 103.532C106.108 101.426 104.871 99.1647 103.895 96.7877C103.849 96.7312 103.817 96.6644 103.802 96.593C103.787 96.5215 103.789 96.4475 103.809 96.3772C103.829 96.3069 103.865 96.2424 103.915 96.1891C103.965 96.1359 104.027 96.0954 104.096 96.0712L115.993 89.2353C116.845 88.7456 117.707 88.2489 118.415 87.5667C118.929 87.0684 119.35 86.4823 119.658 85.8359C119.905 85.3208 119.928 84.1052 120.243 83.7245C120.551 83.3517 121.606 83.322 122.093 83.1753C122.781 82.9648 123.454 82.7104 124.108 82.4137C126.77 81.2231 129.139 79.4932 131.691 78.0991C133.122 77.2809 134.651 76.648 136.241 76.2154V76.2154Z" fill="#2F2E41"/>
<path opacity="0.1" d="M129.497 81.3204C127.453 82.8556 124.806 84.2668 122.78 85.8425C122.089 86.3802 110.563 92.8602 110.4 93.7208C112.29 94.0393 124.329 85.6167 126.052 84.7763C127.775 83.9358 129.302 82.7506 130.815 81.5742C131.2 81.2744 132.834 80.3731 131.727 80.0381C131.104 79.8495 129.957 81.0135 129.497 81.3204Z" fill="black"/>
<path d="M118.284 10.0626L109.183 5.29573L96.6159 7.24572L94.0156 18.7298L100.488 18.4809L102.296 14.2617V18.4113L105.283 18.2963L107.016 11.5795L108.1 18.7298L118.717 18.5131L118.284 10.0626Z" fill="#2F2E41"/>
<path d="M116.252 33.6205H96.6689V57.2555H116.252V33.6205Z" fill="#3F3D56"/>
<path d="M87.3726 74.7279C87.8222 75.3991 88.349 76.0557 89.0713 76.4178C89.5318 76.6282 90.0343 76.7305 90.5404 76.7169C91.0465 76.7033 91.5428 76.5743 91.9914 76.3396C92.8874 75.8592 93.6207 75.1239 94.0988 74.2267C95.0878 72.4802 95.2927 70.3903 95.1692 68.387C95.0458 66.3837 94.6181 64.4111 94.4288 62.4129C94.2911 60.9604 94.2799 59.4992 94.2689 58.0402C94.2347 57.7334 94.2991 57.4236 94.4526 57.1558C94.6717 56.8567 95.0728 56.7743 95.4282 56.6687C97.4243 56.0756 98.7493 54.2046 99.6992 52.3515C100.333 51.1142 100.885 49.7616 100.763 48.3765C100.64 46.9915 99.6448 45.5961 98.2616 45.4548C97.1212 45.3384 96.0682 46.0627 95.2456 46.861C93.1704 48.8876 91.8368 51.5529 91.4589 54.4288C91.2783 55.8371 91.3301 57.2837 90.947 58.6509C90.1291 61.5701 87.5701 63.3598 86.2949 65.9866C84.8897 68.881 85.6653 72.1669 87.3726 74.7279Z" fill="#FFB8B8"/>
<path d="M125.029 63.5754C124.738 64.2524 124.315 64.8642 123.783 65.3748C123.252 65.8854 122.624 66.2843 121.935 66.5481C121.08 66.8916 120.137 66.9494 119.246 66.7128C118.804 66.5903 118.397 66.3675 118.055 66.0619C117.713 65.7563 117.447 65.376 117.276 64.9506C117.139 64.5221 117.065 64.0764 117.054 63.6268C116.926 61.6583 116.975 59.6297 117.69 57.7911C117.966 57.082 118.338 56.4094 118.556 55.6804C118.77 54.8383 118.879 53.9731 118.881 53.1043L119.117 47.7331C119.155 47.3431 119.128 46.9494 119.037 46.5684C118.802 45.7912 118.076 45.2862 117.409 44.8227C115.8 43.7033 114.209 42.3972 113.429 40.5985C113.161 40.0569 113.065 39.4464 113.154 38.8487C113.374 37.7822 114.451 37.0917 115.514 36.859C116.211 36.7068 116.93 36.6971 117.63 36.8305C118.33 36.9638 118.996 37.2375 119.587 37.635C120.179 38.0325 120.683 38.5456 121.071 39.1434C121.459 39.7412 121.722 40.4113 121.844 41.1133C121.949 41.7195 121.948 42.3386 122.009 42.9508C122.14 44.2493 122.552 45.5009 122.81 46.7803C123.445 49.9315 123.116 53.189 123.744 56.3397C124.269 58.974 126.25 60.6929 125.029 63.5754Z" fill="#FFB8B8"/>
<path d="M3.84716 96.4263L3.39697 96.4175C3.57109 91.412 4.10516 86.4255 4.99506 81.4967C6.94177 70.944 10.1788 64.0136 14.6163 60.8979L14.8748 61.2663C4.50882 68.5445 3.85244 96.1483 3.84716 96.4263Z" fill="#2F2E41"/>
<path d="M9.4746 96.3186L9.02441 96.3098C9.03409 95.8113 9.31546 84.0615 13.9411 80.8139L14.1996 81.1823C9.76059 84.2989 9.4768 96.1988 9.4746 96.3186Z" fill="#2F2E41"/>
<path d="M17.436 61.3072C18.6792 61.3072 19.687 60.2994 19.687 59.0562C19.687 57.8131 18.6792 56.8053 17.436 56.8053C16.1928 56.8053 15.1851 57.8131 15.1851 59.0562C15.1851 60.2994 16.1928 61.3072 17.436 61.3072Z" fill="#5DB0AB"/>
<path d="M16.3213 80.6653C17.5644 80.6653 18.5722 79.6575 18.5722 78.4144C18.5722 77.1712 17.5644 76.1634 16.3213 76.1634C15.0781 76.1634 14.0703 77.1712 14.0703 78.4144C14.0703 79.6575 15.0781 80.6653 16.3213 80.6653Z" fill="#5DB0AB"/>
<path d="M8.42517 62.6565C8.8482 65.3586 7.74563 67.7753 7.74563 67.7753C7.74563 67.7753 5.95719 65.8112 5.53416 63.1091C5.11113 60.4071 6.21369 57.9904 6.21369 57.9904C6.21369 57.9904 8.00214 59.9545 8.42517 62.6565Z" fill="#2F2E41"/>
<path d="M15.7829 69.2189C13.1959 70.1063 10.624 69.4416 10.624 69.4416C10.624 69.4416 12.2465 67.3383 14.8335 66.451C17.4205 65.5636 19.9924 66.2282 19.9924 66.2282C19.9924 66.2282 18.3699 68.3315 15.7829 69.2189Z" fill="#2F2E41"/>
<path d="M15.866 86.3623C14.6951 86.7301 13.4482 86.7839 12.25 86.5185C13.0108 85.5498 14.0354 84.8219 15.2005 84.4222C16.3655 84.0226 17.6213 83.9684 18.8165 84.2661C18.0335 85.2111 17.016 85.934 15.866 86.3623V86.3623Z" fill="#2F2E41"/>
</svg>
