<svg width="28" height="31" viewBox="0 0 28 31" fill="none" xmlns="http://www.w3.org/2000/svg">
<path d="M27.3788 31L26.9671 30.8363C26.8767 30.8001 17.8731 27.1407 13.6554 18.8433C9.43755 10.5454 11.5028 0.554715 11.5242 0.454979L11.6214 0L12.0329 0.163711C12.1233 0.199874 21.1267 3.85925 25.3446 12.1567C29.5624 20.4546 27.4972 30.4453 27.4758 30.545L27.3788 31ZM14.3308 18.457C17.8967 25.4726 25.0116 29.0688 26.8143 29.8898C27.157 27.8401 28.2319 19.5518 24.6692 12.543C21.1069 5.53495 13.9892 1.93318 12.1857 1.11024C11.8428 3.16107 10.7683 11.4486 14.3308 18.457H14.3308Z" fill="#3F3D56"/>
<path d="M16.6727 16.359C24.1285 21.1573 27 30.6882 27 30.6882C27 30.6882 17.7832 32.4394 10.3273 27.6411C2.87148 22.8427 0 13.3118 0 13.3118C0 13.3118 9.21682 11.5606 16.6727 16.359Z" fill="#FF5151"/>
</svg>
