<svg width="28" height="31" viewBox="0 0 28 31" fill="none" xmlns="http://www.w3.org/2000/svg">
<path d="M0.621208 31L1.03288 30.8363C1.12334 30.8001 10.1269 27.1407 14.3446 18.8433C18.5624 10.5454 16.4972 0.554715 16.4758 0.454979L16.3786 0L15.9671 0.163711C15.8767 0.199874 6.87326 3.85925 2.65541 12.1567C-1.56245 20.4546 0.502842 30.4453 0.524191 30.545L0.621208 31ZM13.6692 18.457C10.1033 25.4726 2.98841 29.0688 1.18571 29.8898C0.842964 27.8401 -0.231916 19.5518 3.33079 12.543C6.89311 5.53495 14.0108 1.93318 15.8143 1.11024C16.1572 3.16107 17.2317 11.4486 13.6692 18.457H13.6692Z" fill="#3F3D56"/>
<path d="M11.3273 16.359C3.87148 21.1573 1 30.6882 1 30.6882C1 30.6882 10.2168 32.4394 17.6727 27.6411C25.1285 22.8427 28 13.3118 28 13.3118C28 13.3118 18.7832 11.5606 11.3273 16.359Z" fill="#FF9B51"/>
</svg>
