<svg width="55" height="59" viewBox="0 0 55 59" fill="none" xmlns="http://www.w3.org/2000/svg">
<path d="M1.20588 58L2.005 57.6937C2.1806 57.626 19.6581 50.7795 27.8454 35.2552C36.033 19.7301 32.0239 1.03785 31.9825 0.851251L31.7938 0L30.995 0.306297C30.8194 0.373957 13.3422 7.22053 5.15461 22.7448C-3.03299 38.2699 0.976105 56.9621 1.01755 57.1488L1.20588 58ZM26.5343 34.5325C19.6123 47.6584 5.80103 54.3868 2.30167 55.9228C1.63634 52.088 -0.450191 36.5807 6.46564 23.4675C13.3807 10.3557 27.1975 3.61693 30.6983 2.07723C31.364 5.91426 33.4498 21.42 26.5343 34.5325H26.5343Z" fill="#3F3D56"/>
<path d="M21.6547 31.3447C6.74296 40.4083 1 58.4111 1 58.4111C1 58.4111 19.4337 61.7189 34.3454 52.6553C49.257 43.5918 55 25.5889 55 25.5889C55 25.5889 36.5664 22.2811 21.6547 31.3447Z" fill="#26A69A"/>
</svg>
