<svg width="434" height="546" viewBox="0 0 434 546" fill="none" xmlns="http://www.w3.org/2000/svg">
<mask id="mask0" mask-type="alpha" maskUnits="userSpaceOnUse" x="0" y="0" width="423" height="546">
<rect width="423" height="546" rx="12" fill="white"/>
</mask>
<g mask="url(#mask0)">
<path d="M293.868 505.873C409.437 505.873 503.124 407.898 503.124 287.04C503.124 166.182 409.437 68.2075 293.868 68.2075C178.299 68.2075 84.6123 166.182 84.6123 287.04C84.6123 407.898 178.299 505.873 293.868 505.873Z" fill="#EBFFF7"/>
<path d="M308.69 508.609C306.271 508.609 303.828 508.569 301.429 508.49L301.484 506.668C304.928 506.781 308.443 506.812 311.903 506.762L311.927 508.586C310.85 508.601 309.771 508.608 308.69 508.609ZM322.419 508.186L322.316 506.366C325.766 506.153 329.259 505.854 332.7 505.477L332.882 507.29C329.415 507.67 325.895 507.972 322.419 508.186H322.419ZM290.947 507.902C287.469 507.623 283.954 507.258 280.499 506.814L280.712 505.005C284.14 505.444 287.628 505.807 291.08 506.083L290.947 507.902ZM343.295 505.896L343.033 504.094C346.461 503.55 349.914 502.919 353.295 502.216L353.635 504.004C350.228 504.712 346.748 505.349 343.295 505.896H343.295ZM270.112 505.229C266.676 504.62 263.207 503.92 259.803 503.148L260.173 501.365C263.551 502.133 266.993 502.827 270.403 503.431L270.112 505.229ZM363.883 501.617L363.464 499.847C366.829 498.977 370.211 498.015 373.519 496.989L374.015 498.738C370.681 499.772 367.273 500.741 363.883 501.617ZM249.598 500.572C246.227 499.634 242.836 498.603 239.517 497.505L240.042 495.767C243.336 496.856 246.702 497.879 250.046 498.809L249.598 500.572ZM384.008 495.373L383.436 493.651C386.701 492.464 389.984 491.181 393.197 489.836L393.844 491.53C390.607 492.884 387.299 494.177 384.009 495.373H384.008ZM229.555 493.945C226.282 492.687 222.988 491.329 219.766 489.909L220.443 488.228C223.64 489.637 226.909 490.984 230.157 492.234L229.555 493.945ZM403.477 487.227L402.755 485.567C405.89 484.077 409.042 482.487 412.121 480.84L412.915 482.465C409.811 484.124 406.636 485.725 403.477 487.227H403.477ZM210.168 485.408C207.021 483.84 203.863 482.173 200.781 480.45L201.603 478.842C204.662 480.551 207.795 482.206 210.918 483.763L210.168 485.408ZM422.135 477.253L421.271 475.67C424.278 473.876 427.279 471.99 430.19 470.064L431.122 471.604C428.188 473.545 425.165 475.446 422.135 477.253ZM191.625 475.048C188.632 473.186 185.635 471.223 182.718 469.213L183.677 467.691C186.572 469.685 189.546 471.633 192.517 473.481L191.625 475.048ZM439.854 465.529L438.856 464.035C441.688 461.967 444.513 459.8 447.254 457.598L448.316 459.044C445.555 461.263 442.708 463.446 439.854 465.529ZM174.077 462.961C171.262 460.824 168.451 458.584 165.72 456.304L166.808 454.879C169.518 457.142 172.308 459.364 175.101 461.485L174.077 462.961ZM456.488 452.16L455.364 450.766C458.003 448.438 460.628 446.011 463.17 443.554L464.354 444.893C461.793 447.369 459.147 449.814 456.488 452.16ZM157.663 449.256C155.042 446.855 152.438 444.359 149.923 441.834L151.131 440.518C153.626 443.024 156.211 445.502 158.812 447.885L157.663 449.256ZM471.897 437.256L470.655 435.975C473.088 433.397 475.494 430.73 477.806 428.047L479.102 429.267C476.772 431.971 474.348 434.658 471.897 437.256ZM142.517 434.054C140.112 431.409 137.736 428.675 135.457 425.929L136.774 424.734C139.036 427.46 141.393 430.172 143.78 432.796L142.517 434.054ZM485.952 420.942L484.605 419.784C486.802 416.988 488.966 414.102 491.038 411.205L492.434 412.297C490.347 415.216 488.167 418.125 485.952 420.942ZM128.76 417.48C126.6 414.626 124.474 411.68 122.439 408.722L123.854 407.658C125.873 410.592 127.984 413.516 130.127 416.349L128.76 417.48ZM498.532 403.35L497.09 402.326C499.035 399.331 500.939 396.249 502.75 393.164L504.237 394.119C502.411 397.227 500.491 400.333 498.532 403.35ZM116.509 399.676C114.608 396.63 112.749 393.495 110.981 390.357L112.483 389.431C114.238 392.545 116.083 395.656 117.969 398.678L116.509 399.676ZM509.531 384.621L508.006 383.74C509.68 380.571 511.306 377.318 512.841 374.069L514.404 374.877C512.858 378.15 511.218 381.429 509.531 384.621ZM105.867 380.787C104.241 377.572 102.664 374.274 101.18 370.985L102.757 370.207C104.23 373.471 105.795 376.744 107.409 379.934L105.867 380.787ZM518.844 364.907L517.247 364.175C518.636 360.856 519.97 357.458 521.213 354.074L522.841 354.728C521.589 358.138 520.244 361.563 518.844 364.907ZM96.9296 360.972C95.5928 357.617 94.3126 354.184 93.1248 350.769L94.7638 350.145C95.9423 353.535 97.2126 356.941 98.5388 360.27L96.9296 360.972ZM526.384 344.363L524.729 343.789C525.817 340.36 526.844 336.856 527.781 333.371L529.46 333.865C528.516 337.376 527.48 340.908 526.384 344.363V344.363ZM89.7657 340.367C88.7282 336.891 87.7533 333.341 86.8682 329.813L88.555 329.35C89.4332 332.851 90.4009 336.375 91.4304 339.823L89.7657 340.367ZM532.068 323.229L530.369 322.816C531.15 319.302 531.864 315.712 532.491 312.15L534.206 312.479C533.574 316.07 532.855 319.686 532.068 323.229V323.229ZM84.4398 319.132C83.7127 315.57 83.0545 311.941 82.484 308.345L84.204 308.046C84.7706 311.615 85.4237 315.216 86.1453 318.75L84.4398 319.132ZM535.868 301.64L534.14 301.392C534.609 297.821 535.005 294.179 535.317 290.567L537.054 290.731C536.739 294.371 536.34 298.041 535.868 301.64V301.64ZM81.0033 297.476C80.5921 293.866 80.2545 290.19 79.9994 286.549L81.739 286.415C81.9914 290.03 82.3269 293.678 82.7352 297.261L81.0033 297.476ZM537.764 279.779L536.022 279.697C536.177 276.084 536.256 272.419 536.256 268.804H538C538 272.446 537.921 276.139 537.764 279.779V279.779ZM79.4711 275.583C79.4115 273.347 79.3813 271.066 79.3809 268.804C79.3809 267.401 79.3924 266 79.4153 264.602L81.1591 264.634C81.1361 266.022 81.1247 267.412 81.1247 268.804C81.1251 271.049 81.1553 273.313 81.2141 275.533L79.4711 275.583ZM536.244 266.26C536.208 262.645 536.092 258.98 535.9 255.368L537.641 255.266C537.834 258.906 537.951 262.598 537.987 266.241L536.244 266.26ZM81.573 253.748L79.8326 253.634C80.0501 249.99 80.3507 246.31 80.7249 242.695L82.4585 242.891C82.0868 246.479 81.7892 250.131 81.573 253.748ZM535.085 244.507C534.736 240.911 534.303 237.274 533.797 233.695L535.522 233.428C536.032 237.035 536.468 240.7 536.82 244.322L535.085 244.507ZM83.8161 232.09L82.0928 231.811C82.6271 228.203 83.2478 224.567 83.9379 221.002L85.6468 221.364C84.9622 224.901 84.3462 228.51 83.8161 232.09ZM532.037 222.957C531.372 219.4 530.622 215.819 529.806 212.314L531.501 211.883C532.323 215.415 533.079 219.023 533.749 222.607L532.037 222.957ZM87.9466 210.738L86.2552 210.294C87.1019 206.762 88.0398 203.201 89.0428 199.709L90.7126 200.233C89.7176 203.699 88.787 207.233 87.9466 210.738ZM527.109 201.79C526.137 198.318 525.074 194.825 523.951 191.407L525.599 190.814C526.732 194.258 527.803 197.778 528.783 201.277L527.109 201.79ZM93.9494 189.845L92.3044 189.241C93.4632 185.793 94.7145 182.329 96.0232 178.945L97.6401 179.629C96.3412 182.987 95.0993 186.425 93.9494 189.845H93.9494ZM520.337 181.188C519.065 177.832 517.703 174.464 516.288 171.177L517.878 170.428C519.305 173.74 520.677 177.134 521.959 180.516L520.337 181.188ZM101.776 169.606L100.191 168.844C101.648 165.527 103.198 162.201 104.799 158.958L106.348 159.794C104.76 163.013 103.221 166.314 101.776 169.606ZM511.803 161.367C510.242 158.148 508.589 154.921 506.888 151.78L508.406 150.881C510.12 154.048 511.785 157.298 513.358 160.542L511.803 161.367ZM111.347 150.216L109.836 149.306C111.575 146.147 113.41 142.985 115.288 139.909L116.758 140.89C114.894 143.943 113.073 147.081 111.347 150.216ZM501.558 142.434C499.716 139.366 497.786 136.31 495.824 133.35L497.256 132.311C499.234 135.294 501.179 138.373 503.035 141.464L501.558 142.434ZM122.571 131.835L121.146 130.785C123.156 127.803 125.258 124.831 127.394 121.951L128.772 123.069C126.652 125.927 124.566 128.876 122.571 131.835ZM489.697 124.548C487.595 121.67 485.407 118.808 483.191 116.043L484.527 114.872C486.76 117.658 488.965 120.541 491.083 123.441L489.697 124.548ZM135.347 114.61L134.02 113.428C136.276 110.657 138.627 107.899 141.008 105.23L142.283 106.474C139.92 109.122 137.587 111.86 135.347 114.61ZM476.321 107.855C473.979 105.189 471.548 102.546 469.1 100.001L470.329 98.7075C472.797 101.272 475.245 103.935 477.605 106.621L476.321 107.855ZM149.563 98.679L148.344 97.3755C150.837 94.8244 153.418 92.3022 156.013 89.8793L157.174 91.2399C154.599 93.6441 152.038 96.1471 149.563 98.679ZM461.545 92.4972C458.977 90.0623 456.327 87.6608 453.667 85.3595L454.779 83.9544C457.458 86.2731 460.129 88.6928 462.716 91.1464L461.545 92.4972ZM165.099 84.1708L163.998 82.7568C166.695 80.4599 169.482 78.1946 172.283 76.0238L173.322 77.4885C170.542 79.6434 167.776 81.8913 165.099 84.1708ZM445.486 78.6024C442.716 76.4213 439.866 74.2812 437.016 72.2416L438 70.7368C440.873 72.7915 443.744 74.9477 446.535 77.1457L445.486 78.6024ZM181.824 71.2074L180.851 69.6946C183.737 67.6635 186.709 65.6747 189.683 63.7821L190.589 65.3403C187.638 67.2183 184.689 69.1924 181.824 71.2074ZM428.274 66.2918C425.328 64.3845 422.301 62.5253 419.28 60.7649L420.128 59.1719C423.173 60.9456 426.222 62.8195 429.192 64.7407L428.274 66.2918ZM199.6 59.8998L198.763 58.2997C201.817 56.5522 204.948 54.8568 208.07 53.2598L208.836 54.8982C205.738 56.4828 202.631 58.1652 199.6 59.8998L199.6 59.8998ZM410.051 55.6747C406.948 54.0581 403.769 52.4963 400.604 51.0329L401.309 49.3651C404.499 50.8396 407.702 52.4135 410.829 54.0425L410.051 55.6747ZM218.278 50.3459L217.585 48.6728C220.776 47.2263 224.04 45.839 227.287 44.5492L227.906 46.2544C224.684 47.5339 221.445 48.9105 218.278 50.3459ZM390.959 46.8496C387.73 45.5402 384.426 44.2909 381.137 43.1369L381.692 41.4077C385.006 42.5711 388.336 43.8297 391.589 45.1498L390.959 46.8496ZM237.729 42.6218L237.185 40.889C240.499 39.7529 243.88 38.683 247.234 37.7102L247.701 39.467C244.372 40.4327 241.017 41.4941 237.729 42.6218ZM371.185 39.9105C367.859 38.919 364.467 37.9956 361.102 37.1661L361.503 35.3915C364.893 36.2272 368.311 37.1577 371.663 38.1563L371.185 39.9105ZM257.801 36.7962L257.413 35.0184C260.811 34.2068 264.271 33.4673 267.699 32.8208L268.009 34.6151C264.607 35.2571 261.173 35.9908 257.801 36.7962ZM350.91 34.9116C347.514 34.2451 344.055 33.6521 340.629 33.149L340.871 31.3432C344.323 31.8503 347.809 32.4477 351.231 33.1191L350.91 34.9116ZM278.302 32.9272L278.071 31.1197C281.523 30.6379 285.033 30.2328 288.505 29.9167L288.656 31.7332C285.211 32.0475 281.728 32.4491 278.302 32.9272ZM330.281 31.881C326.846 31.5426 323.35 31.2817 319.889 31.1067L319.974 29.2849C323.461 29.4617 326.983 29.7244 330.445 30.0654L330.281 31.881ZM299.054 31.0337L298.981 29.2119C302.186 29.0721 305.452 29.0009 308.691 29L309.48 29.0013L309.475 30.8249L308.691 30.8236C305.477 30.8245 302.235 30.8953 299.054 31.0337Z" fill="#3F3D56"/>
<path d="M207.277 529.602C291.247 529.602 359.318 518.586 359.318 504.998C359.318 491.41 291.247 480.394 207.277 480.394C123.306 480.394 55.2349 491.41 55.2349 504.998C55.2349 518.586 123.306 529.602 207.277 529.602Z" fill="#3F3D56"/>
<path d="M279.85 190.899C285.589 190.899 290.242 186.033 290.242 180.032C290.242 174.03 285.589 169.164 279.85 169.164C274.111 169.164 269.458 174.03 269.458 180.032C269.458 186.033 274.111 190.899 279.85 190.899Z" fill="#2F2E41"/>
<path d="M268.716 175.374C268.716 172.694 269.664 170.108 271.376 168.114C273.089 166.12 275.446 164.858 277.994 164.571C276.543 164.405 275.075 164.561 273.685 165.028C272.295 165.496 271.015 166.264 269.928 167.283C268.841 168.303 267.972 169.55 267.377 170.944C266.782 172.338 266.474 173.847 266.474 175.374C266.474 176.901 266.782 178.41 267.377 179.804C267.972 181.198 268.841 182.446 269.928 183.465C271.015 184.484 272.295 185.252 273.685 185.72C275.075 186.187 276.543 186.343 277.994 186.177C275.446 185.89 273.089 184.628 271.376 182.634C269.664 180.64 268.716 178.054 268.716 175.374Z" fill="#2F2E41"/>
<path d="M269.458 180.031C269.458 180.031 267.844 187.794 277.93 190.899L269.458 180.031Z" fill="#00BFA6"/>
<path d="M284.148 253.848C303.415 253.848 319.034 237.513 319.034 217.364C319.034 197.215 303.415 180.881 284.148 180.881C264.88 180.881 249.261 197.215 249.261 217.364C249.261 237.513 264.88 253.848 284.148 253.848Z" fill="#2F2E41"/>
<path d="M250.463 331.164L249.214 358.589L309.157 379.484C309.157 379.484 306.035 344.876 307.908 341.611L250.463 331.164Z" fill="#A0616A"/>
<path d="M153.057 453.271L147.438 476.125H173.662V453.271H153.057Z" fill="#A0616A"/>
<path d="M289.176 459.346L301.04 463.718L307.284 447.323L296.669 438.578L289.176 459.346Z" fill="#A0616A"/>
<path d="M310.199 430.888C310.199 430.888 327.889 428.457 327.889 444.129C327.889 459.8 330.387 498.326 305.411 493.755C305.411 493.755 294.171 495.061 298.542 481.349C298.542 481.349 302.992 475.77 301.391 472.356C299.791 468.942 290.425 466.33 291.674 464.371C292.923 462.412 306.659 446.741 306.659 446.741L310.199 430.888Z" fill="#2F2E41"/>
<path d="M310.406 376.219L249.214 354.018L245.468 369.689C245.468 369.689 153.681 314.186 148.061 352.059C148.061 352.059 143.066 382.749 150.559 423.234L151.183 455.882C151.183 455.882 166.793 459.8 174.286 456.535L174.911 421.275C174.911 421.275 181.155 398.42 178.033 380.79C178.033 380.79 224.863 419.316 246.092 423.887C246.092 423.887 171.789 483.961 180.53 502.897C189.272 521.833 199.887 525.098 213.623 521.833C223.09 519.583 265.471 483.843 290.906 461.839C308.496 446.622 318.485 423.644 317.232 399.806C316.777 391.144 314.866 382.749 310.406 376.219Z" fill="#2F2E41"/>
<path d="M151.808 467.636C151.808 467.636 151.183 459.8 147.437 463.065C143.69 466.33 130.578 478.737 130.578 478.737C130.578 478.737 83.1236 491.796 111.846 504.203C111.846 504.203 130.578 508.121 150.559 498.979C150.559 498.979 182.473 499.935 181.814 491.621C181.155 483.308 173.662 469.423 173.662 469.423C173.662 469.423 164.92 476.125 154.93 466.983L151.808 467.636Z" fill="#2F2E41"/>
<path d="M275.439 256.071C288.199 256.071 298.542 245.254 298.542 231.911C298.542 218.568 288.199 207.751 275.439 207.751C262.68 207.751 252.336 218.568 252.336 231.911C252.336 245.254 262.68 256.071 275.439 256.071Z" fill="#A0616A"/>
<path d="M294.171 233.217C294.171 233.217 297.918 252.806 304.786 257.377L266.698 304.392L252.336 290.026L262.951 270.437C262.951 270.437 274.815 263.254 271.068 253.459L294.171 233.217Z" fill="#A0616A"/>
<path d="M307.908 259.336C307.908 259.336 335.382 265.213 338.504 284.149C341.626 303.086 335.382 337.694 335.382 337.694L322.269 439.558C322.269 439.558 321.645 482.655 305.41 475.472C289.176 468.289 309.781 435.64 309.781 435.64L315.401 371.648C315.401 371.648 317.898 317.451 312.903 310.921L292.922 304.392C292.922 304.392 297.293 261.295 307.908 259.336Z" fill="#A0616A"/>
<path d="M262.951 270.437C262.951 270.437 244.219 269.784 232.356 285.455C220.492 301.127 191.769 312.88 191.769 312.88L119.963 342.264C119.963 342.264 106.851 318.104 98.7336 326.593C90.6164 335.082 113.719 356.63 124.334 354.018C134.949 351.406 199.262 331.164 199.262 331.164L250.463 307.004L262.951 270.437Z" fill="#A0616A"/>
<path d="M303.818 255.821C303.818 255.821 279.81 289.373 269.195 288.72C258.58 288.067 265.73 268.228 265.73 268.228L258.237 270.187C258.237 270.187 247.966 290.679 246.717 291.985C246.717 291.985 231.731 317.451 248.59 323.328L249.214 337.041C249.214 337.041 291.049 335.082 309.157 344.876L312.903 310.921C312.903 310.921 289.176 298.515 302.288 274.355C302.288 274.355 306.94 261.698 311.935 260.392L303.818 255.821Z" fill="#D0CDE1"/>
<path opacity="0.1" d="M310.093 435.314L214.56 508.447C214.56 508.447 310.718 449.026 310.093 435.314Z" fill="black"/>
<path d="M276.694 203.552C264.396 203.552 254.426 209.634 254.426 217.136C254.426 220.493 256.43 223.561 259.738 225.931L264.025 222.683L262.859 227.772C263.343 228.006 263.837 228.233 264.352 228.443L270.756 220.629V230.228C272.72 230.557 274.706 230.722 276.694 230.72C288.993 230.72 298.962 224.639 298.962 217.136C298.962 209.634 288.993 203.552 276.694 203.552Z" fill="#2F2E41"/>
<path d="M322.309 207.876C328.048 207.876 332.701 203.011 332.701 197.009C332.701 191.007 328.048 186.142 322.309 186.142C316.57 186.142 311.917 191.007 311.917 197.009C311.917 203.011 316.57 207.876 322.309 207.876Z" fill="#2F2E41"/>
<path d="M311.175 192.352C311.175 189.671 312.123 187.086 313.835 185.091C315.548 183.097 317.905 181.836 320.453 181.548C319.002 181.383 317.534 181.539 316.144 182.006C314.754 182.473 313.474 183.242 312.387 184.261C311.3 185.28 310.431 186.527 309.836 187.921C309.241 189.315 308.933 190.825 308.933 192.352C308.933 193.878 309.241 195.388 309.836 196.782C310.431 198.176 311.3 199.423 312.387 200.442C313.474 201.462 314.754 202.23 316.144 202.697C317.534 203.165 319.002 203.32 320.453 203.155C317.905 202.868 315.548 201.606 313.835 199.612C312.123 197.617 311.175 195.032 311.175 192.352Z" fill="#2F2E41"/>
<path d="M311.917 197.009C311.917 197.009 310.303 204.771 320.388 207.876L311.917 197.009Z" fill="#00BFA6"/>
<path d="M299.479 234.197C300.475 234.197 301.282 232.296 301.282 229.952C301.282 227.608 300.475 225.708 299.479 225.708C298.482 225.708 297.675 227.608 297.675 229.952C297.675 232.296 298.482 234.197 299.479 234.197Z" fill="#A0616A"/>
<path d="M100.394 246.372L73.0147 253.309L72.9256 253.331L69.9493 256.149L69.0927 256.959L67.2563 256.611L64.0054 255.997L66.2708 248.001L66.6956 232.749L65.1381 223.421L73.7751 217.202C73.7751 217.202 90.6243 216.166 100.394 246.372Z" fill="#D0CDE1"/>
<path opacity="0.1" d="M73.0147 253.309C72.6438 254.137 73.4211 253.59 72.9963 254.442L69.0318 255.774L67.2563 256.611L64.0054 255.997L66.2708 248.001L66.6956 232.75L65.1381 223.421L73.7751 217.202C73.7751 217.202 83.045 230.931 73.0147 253.309Z" fill="black"/>
<path d="M132.676 224.458C132.676 224.458 96.7125 241.93 82.1287 244.595C67.5449 247.26 68.8192 262.512 68.8192 262.512L150.517 249.185C150.517 249.185 147.685 235.415 132.676 224.458Z" fill="#D0CDE1"/>
<path d="M63.2973 221.496C63.2973 221.496 69.5273 237.34 62.5894 257.033L70.66 260.883L73.775 257.033L73.8458 256.663L65.2796 255.848C65.2796 255.848 72.3591 236.007 66.5539 222.237C66.5539 222.237 65.2796 219.275 63.2973 221.496Z" fill="#00BFA6"/>
<path d="M182.091 338.916C150.234 331.512 120.571 346.838 120.571 346.838L120.49 346.762L108.677 335.732L62.5186 256.959L73.775 257.033C105.066 237.488 149.101 240.153 149.101 240.153C168.074 262.66 182.091 338.916 182.091 338.916Z" fill="#00BFA6"/>
<path opacity="0.1" d="M120.49 346.762L108.677 335.732L62.5186 256.959L73.775 257.033C73.775 257.033 118.639 318.999 120.49 346.762Z" fill="black"/>
<path d="M125.674 285.299C135.318 282.206 141.612 274.501 139.732 268.09C137.851 261.679 128.509 258.99 118.865 262.083C109.221 265.176 102.927 272.881 104.807 279.292C106.688 285.703 116.03 288.392 125.674 285.299Z" fill="#D0CDE1"/>
</g>
</svg>
