<svg width="19" height="19" viewBox="0 0 19 19" fill="none" xmlns="http://www.w3.org/2000/svg">
<g clip-path="url(#clip0)">
<path d="M9.49985 4.95813C6.99554 4.95813 4.95801 6.99567 4.95801 9.49997C4.95801 12.0043 6.99554 14.0418 9.49985 14.0418C12.0042 14.0418 14.0417 12.0043 14.0417 9.49997C14.0417 6.99567 12.0042 4.95813 9.49985 4.95813ZM9.49985 12.9063C7.62162 12.9063 6.09347 11.3782 6.09347 9.49997C6.09347 7.62174 7.62162 6.09359 9.49985 6.09359C11.3781 6.09359 12.9062 7.62174 12.9062 9.49997C12.9062 11.3782 11.3781 12.9063 9.49985 12.9063Z" fill="#909090"/>
<path d="M18.5529 7.33664L17.0926 7.01918C16.9657 6.6304 16.8084 6.25119 16.6227 5.88589L17.4311 4.62838C17.5755 4.40369 17.5437 4.1087 17.355 3.91997L15.08 1.64499C14.8913 1.45625 14.5963 1.42451 14.3716 1.56889L13.1141 2.37732C12.7488 2.19163 12.3696 2.03435 11.9808 1.90736L11.6634 0.447052C11.6067 0.186127 11.3756 0 11.1086 0H7.8914C7.62438 0 7.39332 0.186127 7.33664 0.447052L7.01918 1.90736C6.6304 2.03435 6.25119 2.19163 5.88589 2.37732L4.62838 1.56889C4.40369 1.42451 4.1087 1.45625 3.91997 1.64499L1.64499 3.91997C1.45625 4.1087 1.42451 4.40369 1.56889 4.62838L2.37732 5.88589C2.19163 6.25119 2.03435 6.6304 1.90736 7.01918L0.447052 7.33664C0.186127 7.39346 0 7.62438 0 7.8914V11.1086C0 11.3756 0.186127 11.6065 0.447052 11.6634L1.90736 11.9808C2.03435 12.3696 2.19163 12.7488 2.37732 13.1141L1.56889 14.3716C1.42451 14.5963 1.45625 14.8913 1.64499 15.08L3.91997 17.355C4.1087 17.5437 4.40369 17.5755 4.62838 17.4311L5.88589 16.6227C6.25119 16.8084 6.6304 16.9657 7.01918 17.0926L7.33664 18.5529C7.39332 18.8139 7.62438 19 7.8914 19H11.1086C11.3756 19 11.6067 18.8139 11.6634 18.5529L11.9808 17.0926C12.3696 16.9657 12.7488 16.8084 13.1141 16.6227L14.3716 17.4311C14.5963 17.5755 14.8913 17.5439 15.08 17.355L17.355 15.08C17.5437 14.8913 17.5755 14.5963 17.4311 14.3716L16.6227 13.1141C16.8084 12.7488 16.9657 12.3696 17.0926 11.9808L18.5529 11.6634C18.8139 11.6065 19 11.3756 19 11.1086V7.8914C19 7.62438 18.8139 7.39346 18.5529 7.33664ZM17.8645 10.651L16.5256 10.942C16.3199 10.9868 16.1558 11.1417 16.0992 11.3443C15.9521 11.8721 15.7405 12.3825 15.4703 12.8613C15.3668 13.0447 15.3731 13.2702 15.4871 13.4474L16.2285 14.6007L14.6008 16.2285L13.4474 15.4871C13.2702 15.3731 13.0447 15.3668 12.8614 15.4703C12.3825 15.7405 11.8721 15.9521 11.3443 16.0992C11.1417 16.1558 10.9868 16.3199 10.942 16.5256L10.651 17.8645H8.34903L8.05795 16.5256C8.01316 16.3199 7.85835 16.1558 7.65569 16.0992C7.1279 15.9521 6.6175 15.7405 6.1387 15.4703C5.95533 15.3668 5.72977 15.3733 5.55264 15.4871L4.39935 16.2285L2.77161 14.6007L3.51292 13.4474C3.62686 13.2702 3.63338 13.0447 3.52988 12.8613C3.25968 12.3825 3.04804 11.8721 2.90076 11.3443C2.84423 11.1417 2.68028 10.9868 2.47459 10.942L1.13546 10.651V8.34903L2.47444 8.05795C2.68014 8.01316 2.84423 7.85835 2.90076 7.65569C3.0479 7.1279 3.25954 6.6175 3.52974 6.1387C3.63324 5.95533 3.62686 5.72977 3.51292 5.55264L2.77146 4.39935L4.3992 2.77146L5.55264 3.51292C5.72977 3.62686 5.95533 3.63324 6.13856 3.52974C6.6175 3.25954 7.1279 3.0479 7.65569 2.90076C7.85835 2.84423 8.01316 2.68014 8.05795 2.47444L8.34903 1.13546H10.651L10.942 2.47444C10.9868 2.68014 11.1417 2.84423 11.3443 2.90076C11.8721 3.0479 12.3825 3.25954 12.8613 3.52974C13.0447 3.63324 13.2702 3.62672 13.4474 3.51292L14.6007 2.77146L16.2284 4.39935L15.4871 5.55264C15.3731 5.72977 15.3666 5.95533 15.4701 6.1387C15.7405 6.6175 15.952 7.1279 16.0992 7.65569C16.1558 7.85835 16.3197 8.01316 16.5254 8.05795L17.8645 8.34903V10.651Z" fill="#909090"/>
</g>
<defs>
<clipPath id="clip0">
<rect width="19" height="19" fill="white"/>
</clipPath>
</defs>
</svg>
