<svg width="19" height="20" viewBox="0 0 19 20" fill="none" xmlns="http://www.w3.org/2000/svg">
<path d="M18.5389 2.71749C18.4136 2.68744 18.282 2.72646 18.1915 2.82064L16.6531 4.41972H15.9155L15.1035 3.55224V2.78102L16.62 1.1939C16.7097 1.10002 16.7463 0.965037 16.7165 0.836626C16.687 0.708365 16.5954 0.604919 16.4742 0.562763C16.0932 0.430316 15.6946 0.363195 15.2891 0.363195C14.0804 0.363195 12.9823 0.944407 12.2763 1.95779C11.6156 2.90644 11.4119 4.06902 11.7037 5.18166L8.97016 8.00057L4.41601 3.29347V2.36963C4.41601 2.23524 4.34758 2.11057 4.23582 2.0415L1.61184 0.417759C1.46572 0.327318 1.27886 0.351087 1.15854 0.475312L0.109012 1.55746C-0.0113071 1.68168 -0.0343562 1.87438 0.0532014 2.02506L1.6275 4.73095C1.69447 4.84621 1.81523 4.91662 1.94555 4.91677L2.84113 4.91707L7.39572 9.62416L4.67259 12.4323C3.59363 12.1315 2.46567 12.3419 1.5453 13.0237C0.563181 13.7512 0 14.8833 0 16.1298C0 16.5477 0.0650884 16.959 0.193526 17.3517C0.23455 17.4774 0.335879 17.5723 0.461127 17.6022C0.58652 17.6323 0.718001 17.5933 0.808603 17.4991L2.34695 15.9001H3.08858L3.93357 16.7715V17.5363L2.38305 19.1227C2.29172 19.2161 2.25388 19.3517 2.28302 19.481C2.31201 19.6102 2.40407 19.7146 2.52598 19.7569C2.9068 19.8894 3.30559 19.9565 3.71091 19.9565C4.91961 19.9565 6.01727 19.3756 6.72295 18.3628C7.38412 17.4137 7.58808 16.2507 7.29642 15.1381L9.48347 12.8827L9.98447 13.4439L9.75455 13.6808C9.60959 13.8303 9.60959 14.0726 9.75455 14.2221C9.89952 14.3715 10.1344 14.3715 10.2795 14.2221L10.4876 14.0075L15.1882 19.2728C15.1917 19.2766 15.1953 19.2804 15.1989 19.2841C16.0687 20.181 17.4779 20.1813 18.3481 19.284C19.2158 18.3887 19.2158 16.9319 18.3481 16.0366C18.3443 16.0327 18.3404 16.029 18.3365 16.0253L13.2226 11.1872L13.4285 10.9749C13.5735 10.8256 13.5735 10.5833 13.4285 10.4338C13.2835 10.2843 13.0487 10.2843 12.9036 10.4338L12.6753 10.6694L12.1301 10.1534L14.3277 7.88711C14.6401 7.97321 14.9625 8.01686 15.2891 8.01686C17.3354 8.01686 19 6.30013 19 4.1901C19 3.77198 18.9349 3.36089 18.8065 2.96803C18.7654 2.84231 18.6641 2.74739 18.5389 2.71749V2.71749ZM3.25775 4.2641C3.18817 4.1922 3.0938 4.15557 2.99522 4.15557L2.15589 4.15527L0.838755 1.88753L1.47848 1.22784L3.6738 2.58639V3.45193C3.6738 3.55328 3.71279 3.65045 3.78223 3.7222L8.44539 8.54187L7.92048 9.08301L3.25775 4.2641ZM12.6973 11.729L17.8286 16.5833C18.4017 17.1807 18.4 18.1479 17.8232 18.743C17.2451 19.3391 16.3092 19.3409 15.7288 18.7482L11.0128 13.4657L12.6973 11.729ZM12.1499 11.211L10.5097 12.9021L10.0087 12.341L11.6047 10.695L12.1499 11.211ZM15.2891 7.25148C14.9645 7.25148 14.6453 7.19781 14.3406 7.09198C14.2071 7.04578 14.0595 7.08136 13.9598 7.18406C12.0993 9.1026 8.09053 13.2364 6.61437 14.7588C6.51463 14.8616 6.47999 15.0138 6.52507 15.1517C6.83355 16.0963 6.68598 17.1038 6.12004 17.9163C5.5557 18.7264 4.67752 19.1911 3.71091 19.1911C3.60233 19.1911 3.49433 19.185 3.38735 19.1732L4.56604 17.9671C4.6362 17.8954 4.67578 17.7976 4.67578 17.6955V16.6129C4.67578 16.5114 4.63664 16.4141 4.56706 16.3423L3.50462 15.2467C3.43504 15.175 3.34067 15.1346 3.24224 15.1346H2.19242C2.09341 15.1346 1.9986 15.1754 1.92888 15.2478L0.759461 16.4633C0.747864 16.3529 0.742065 16.2416 0.742065 16.1296C0.742065 15.1327 1.19261 14.2272 1.97831 13.6453C2.76604 13.0617 3.74323 12.9093 4.6594 13.2276C4.79291 13.2741 4.94048 13.2383 5.04022 13.1355C5.06066 13.1146 12.3804 5.56615 12.3856 5.56076C12.4854 5.45792 12.5199 5.30589 12.4749 5.16806C12.1663 4.22344 12.3136 3.21619 12.8791 2.40431C13.4439 1.59349 14.3222 1.12858 15.2889 1.12858C15.4009 1.12858 15.512 1.13501 15.6222 1.14756L14.468 2.35558C14.3996 2.42718 14.3613 2.5236 14.3613 2.62406V3.70666C14.3613 3.80592 14.3986 3.90114 14.4654 3.97245L15.4907 5.06805C15.5606 5.14279 15.657 5.18495 15.7578 5.18495H16.8076C16.9064 5.18495 17.0013 5.14429 17.071 5.07179L18.2404 3.85644C18.252 3.96677 18.2578 4.07814 18.2578 4.1901C18.2578 5.87813 16.926 7.25148 15.2891 7.25148V7.25148Z" fill="#919191"/>
</svg>
